<svg width="300" height="300" viewBox="0 0 300 300" fill="none" xmlns="http://www.w3.org/2000/svg">
<g clip-path="url(#clip0_4318_137636)">
<circle cx="150" cy="150" r="150" fill="#E20714"/>
<circle cx="150" cy="150" r="126" fill="#E20714"/>
<path fill-rule="evenodd" clip-rule="evenodd" d="M101.965 176.942C101.759 177.23 101.276 177.201 101.02 177.201C100.803 177.201 98.9595 177.032 98.7793 177.032H94.7088C92.9849 178.778 91.191 181.112 91.2166 182.989C91.269 185.609 94.3148 186.093 95.4847 186.093C97.4776 186.065 98.8559 185.415 100.87 184.277C100.87 184.277 101.01 184.363 101.103 184.363L101.076 184.653C98.6852 186.66 96.2243 187.78 94.14 187.78C92.5102 187.78 89.2412 187.014 89.1874 184.148C89.1444 181.815 91.4062 179.498 93.6586 177.16L86.2089 177.534C85.9547 177.554 85.6172 177.554 85.6172 177.201C85.6172 176.898 86.1995 175.615 86.7333 175.615H94.9751C95.4619 175.104 95.9029 174.583 96.3332 174.275C96.8335 174.275 96.9666 174.39 97.0379 174.39C96.7891 174.718 96.4153 175.137 96.0092 175.566C97.4386 175.76 100.498 175.717 101.588 176.219C101.748 176.309 101.844 176.656 101.937 176.922L101.965 176.942Z" fill="white"/>
<path fill-rule="evenodd" clip-rule="evenodd" d="M111.375 185.85C110.933 186.266 108.318 188.036 107.308 188.036C106.538 188.036 106.189 187.179 106.176 186.815L106.137 184.764C106.137 184.563 105.989 184.451 105.802 184.451C105.019 184.451 102.326 187.626 101.022 187.6C100.161 187.6 100.091 186.463 100.091 186.065C100.091 185.611 100.043 185.263 100.579 184.545C102.435 182.098 104.225 179.66 106.275 177.297C106.421 177.118 106.907 176.797 107.123 176.797C107.608 176.797 107.522 177.066 107.522 177.316C107.522 177.51 107.365 178.302 107.186 178.692C106.797 179.498 106.375 180.26 105.249 181.351C104.819 181.749 101.858 183.691 101.867 184.764C101.883 184.955 102.072 185.938 102.689 185.962C103.123 185.962 103.902 185.312 104.504 184.83C104.995 184.427 105.624 183.932 106.204 183.558C106.47 183.386 106.997 183.12 107.498 183.215C107.995 183.558 107.928 184.064 107.995 184.471C108.073 185.094 108.058 185.811 108.073 186.461C108.144 186.561 108.294 186.713 108.356 186.799C109.179 186.876 110.137 186.295 111.001 185.548H111.31C111.31 185.548 111.404 185.765 111.337 185.851H111.375V185.85Z" fill="white"/>
<path fill-rule="evenodd" clip-rule="evenodd" d="M113.666 183.26C113.004 183.26 111.595 184.083 111.415 184.976C111.509 184.976 114.233 184.693 114.219 183.725C114.219 183.454 114.056 183.26 113.666 183.26ZM117.695 185.574C115.9 186.712 114.298 187.685 112.695 187.685C111.713 187.685 109.925 187.291 109.883 185.851C109.831 183.911 113.772 182.538 114.621 182.503C115.317 182.503 115.676 182.904 115.684 183.357C115.711 185.051 111.455 185.374 111.376 185.414C111.672 186.354 113.072 186.442 113.762 186.442C114.888 186.442 116.373 185.898 117.695 185.285V185.592V185.574ZM135.846 188.118C134.969 188.243 133.062 188.465 132.506 188.465C130.307 188.465 127.369 187.89 126.324 186.164C126.324 186.084 126.378 185.957 126.362 185.874H126.657C127.993 187.634 130.705 187.89 132.354 187.89C135.253 187.89 139.529 187.013 141.877 183.357C142.236 182.758 142.489 182.032 142.463 181.363C142.455 178.844 139.662 178.297 138.346 178.297C134.305 178.274 128.652 181.443 125.206 185.695C124.71 186.296 122.521 192.842 120.762 192.842C120.324 192.842 119.59 192.508 119.575 191.992C119.564 190.863 124.572 185.531 124.695 185.336C125.317 184.197 125.89 182.742 126.458 181.43L126.418 181.313C126.08 181.531 125.477 181.716 125.325 181.716C124.8 181.716 123.398 180.909 123.122 180.311C123.534 180.355 123.735 180.335 123.94 180.335C125.477 180.335 127.683 178.419 128.652 176.839C128.7 176.839 128.907 176.952 128.97 177.046C129.132 177.554 129.371 178.808 129.371 178.996C129.376 179.913 127.993 180.203 127.296 180.973C127.101 181.207 126.92 181.718 126.781 182.016C126.458 182.811 125.861 183.727 125.833 184.322C129.581 180.593 135.359 176.839 139.841 176.839C141.709 176.839 144.605 177.779 144.648 180.545C144.724 184.523 138.508 187.79 135.846 188.118ZM152.929 185.024C152.336 185.912 149.483 187.684 148.026 187.684C147.678 187.684 146.142 187.231 146.117 186.561C146.117 186.201 147.529 185.437 147.704 185.152C147.572 184.765 146.218 184.278 146.171 184.278C145.95 184.278 145.364 184.783 145.037 184.956C145.037 184.956 144.905 184.852 144.808 184.831C144.987 184.613 145.342 184.305 145.612 184.04C145.657 183.981 145.471 183.829 145.482 183.627C145.612 183.341 147.015 181.953 147.557 181.953C147.78 181.953 147.81 182.058 147.905 182.137L147.878 182.401C147.878 182.621 147.678 182.817 147.393 183.105C147.617 183.388 149.12 183.796 149.128 184.324C149.142 185.077 147.958 185.052 147.947 185.697C147.958 186.443 149.288 186.443 149.332 186.443C150.343 186.443 151.566 185.672 152.483 185.052H152.902L152.929 185.024Z" fill="white"/>
<path fill-rule="evenodd" clip-rule="evenodd" d="M155.487 181.11C155.118 181.11 154.193 180.81 154.176 180.369C154.202 179.935 155.144 179.455 155.239 179.431C155.448 179.431 156.447 180.139 157.036 180.398C156.737 180.945 155.891 181.11 155.487 181.11ZM152.981 187.682C151.845 187.682 151.252 187.179 151.227 186.2C151.227 186.006 151.267 185.53 151.391 185.214C151.478 185.095 153.86 182.774 154.303 182.788C154.505 182.788 154.592 182.883 154.688 182.883L154.699 183.168C153.944 183.827 153.004 184.738 153.022 185.438C153.049 186.314 153.936 186.442 154.271 186.442C155.402 186.442 156.367 185.731 157.396 185.112L157.531 185.214V185.53C156.562 186.246 154.446 187.682 152.981 187.682Z" fill="white"/>
<path fill-rule="evenodd" clip-rule="evenodd" d="M168.191 185.5C166.876 186.42 165.221 187.684 163.904 187.684C162.754 187.684 161.666 186.942 162.167 185.052C162.167 185.052 162.214 185.023 162.126 184.933C160.587 186.246 159.054 187.684 157.666 187.684C156.682 187.684 155.918 187.103 155.895 186.156C155.845 183.798 160.4 182.774 161.251 182.79C161.442 182.79 161.926 182.885 162.21 182.868C162.21 182.955 162.296 183.166 162.296 183.258C162.246 183.342 162.167 183.452 161.946 183.452C161.738 183.452 161.481 183.355 161.301 183.355C160.501 183.355 157.885 184.213 157.912 185.574C157.921 186.295 158.645 186.295 158.865 186.269C159.975 186.269 161.692 185.078 162.473 184.127C163.109 183.31 163.415 182.183 163.93 181.243C164.135 180.845 166.724 176.796 167.519 176.761C167.831 176.761 167.93 177.476 167.93 177.51C167.997 180.716 163.368 182.075 163.415 184.739C163.429 185.963 164.329 186.443 165.156 186.443C166.326 186.443 167.117 185.531 168.047 185.113L168.141 185.215L168.155 185.531L168.191 185.5Z" fill="white"/>
<path fill-rule="evenodd" clip-rule="evenodd" d="M170.322 183.259C169.678 183.259 168.251 184.082 168.075 184.975C168.169 184.975 170.903 184.692 170.875 183.724C170.875 183.453 170.719 183.259 170.323 183.259H170.322ZM174.344 185.573C172.556 186.711 170.961 187.684 169.354 187.684C168.384 187.684 166.6 187.29 166.539 185.85C166.499 183.91 170.431 182.537 171.277 182.502C171.981 182.502 172.33 182.903 172.343 183.356C172.37 185.05 168.114 185.373 168.036 185.413C168.317 186.353 169.734 186.441 170.403 186.441C171.55 186.441 173.033 185.897 174.344 185.284V185.591V185.573ZM185.905 184.694C185.334 186.798 182.765 187.682 181.177 187.713C180.488 187.713 178.927 187.422 178.901 186.225C178.877 184.637 181.123 183.399 182.455 183.103C182.555 183.04 182.615 182.954 182.823 182.954H183.492C183.492 182.954 183.414 183.185 183.327 183.259C182.899 183.399 180.736 183.759 180.715 185.15C180.744 186.338 182.496 186.441 182.832 186.441C183.576 186.441 184.758 186.121 185.443 184.741C184.768 184.674 184.085 184.5 183.348 184.344C183.577 183.839 183.87 183.235 184.186 182.788C185.188 183.213 186.163 183.87 187.333 183.87C187.501 183.87 188.002 183.828 188.489 183.726C188.165 184.393 186.597 184.559 185.905 184.694Z" fill="white"/>
<path fill-rule="evenodd" clip-rule="evenodd" d="M191.094 183.76C191.286 184.019 192.039 183.956 192.362 183.956C192.574 183.956 193.47 183.889 194.531 183.889C193.657 184.869 191.542 184.502 190.291 184.83C190.071 184.869 189.588 185.458 189.495 185.914C189.426 186.246 189.603 187.408 189.589 188.146C189.589 188.348 188.543 192.782 187.52 192.782C186.882 192.782 186.978 191.78 186.978 191.598C186.96 190.797 187.179 188.911 187.639 187.799C187.934 187.124 188.89 185.329 188.89 185.177C188.89 185.005 188.758 184.868 188.589 184.696C188.05 184.671 187.516 184.581 186.999 184.427C186.999 184.346 187.08 184.127 187.181 184.081C187.303 183.932 188.512 183.355 188.688 183.355C188.894 183.355 189.647 183.611 189.87 183.611C190.042 183.611 192.717 178.823 193.574 177.316C193.751 177.032 194.306 176.796 194.394 176.761C194.85 176.761 194.8 177.262 194.813 177.403C194.839 179.527 193.442 181.177 191.094 183.76ZM224.942 184.501C224.069 185.731 222.212 187.45 220.924 187.45C219.579 187.45 219.439 185.46 219.18 184.852C218.997 184.323 218.817 183.399 218.568 182.663C217.999 180.893 217.984 179.548 217.028 178.251C216.557 177.578 215.846 177.532 215.428 177.532C212.726 177.532 209.53 180.744 207.612 181.892C210.153 182.277 211.4 182.208 213.032 182.182C213.219 182.182 215.121 182.209 216.184 182.075C216.467 182.059 217.138 181.86 217.35 181.873H217.625L217.593 182.059C217.609 182.162 217.445 182.365 217.364 182.431C215.942 183.386 213.12 183.611 211.033 183.628C210.846 183.628 208.671 183.58 207.688 183.514C207.228 183.494 206.176 183.278 205.96 183.278C205.891 183.278 201.156 188.196 199.133 188.196C198.729 188.196 198.327 187.945 198.314 187.665C198.314 187.077 203.096 183.932 204.456 182.902C204.214 182.73 203.795 182.593 203.475 182.442L203.429 182.127C203.795 181.815 204.854 181.111 205.099 181.111C205.274 181.111 206.175 181.622 206.366 181.622C206.42 181.622 214.981 175.616 217.046 175.616C220.208 175.616 220.809 186.026 222.287 186.026C223.04 186.026 223.814 184.783 224.667 184.278C224.758 184.365 224.881 184.416 224.942 184.471V184.501Z" fill="white"/>
<path fill-rule="evenodd" clip-rule="evenodd" d="M228.532 183.76C228.719 184.02 229.486 183.956 229.782 183.956C229.988 183.956 230.885 183.889 231.959 183.889C231.085 184.869 228.967 184.502 227.703 184.83C227.502 184.869 227.02 185.458 226.945 185.914C226.86 186.246 227.02 187.408 227.02 188.146C227.02 188.348 225.969 192.782 224.959 192.782C224.316 192.782 224.421 191.78 224.412 191.598C224.391 190.797 224.597 188.912 225.062 187.8C225.364 187.124 226.321 185.329 226.306 185.177C226.306 185.005 226.187 184.868 226.024 184.696C225.487 184.673 224.954 184.583 224.44 184.427C224.42 184.346 224.515 184.127 224.597 184.081C224.717 183.932 225.942 183.355 226.117 183.355C226.334 183.355 227.089 183.611 227.293 183.611C227.464 183.611 230.141 178.824 231.007 177.316C231.178 177.032 231.732 176.796 231.829 176.761C232.286 176.761 232.227 177.262 232.227 177.404C232.267 179.527 230.855 181.177 228.532 183.76Z" fill="white"/>
<path fill-rule="evenodd" clip-rule="evenodd" d="M238.695 185.023C238.138 185.911 235.381 187.683 233.967 187.683C233.628 187.683 232.15 187.23 232.14 186.56C232.14 186.2 233.501 185.436 233.668 185.151C233.55 184.764 232.247 184.277 232.186 184.277C231.971 184.277 231.39 184.783 231.083 184.955C231.083 184.955 230.964 184.851 230.875 184.83C231.016 184.612 231.383 184.304 231.664 184.039C231.693 183.98 231.504 183.828 231.516 183.626C231.651 183.34 232.978 181.952 233.508 181.952C233.737 181.952 233.767 182.057 233.855 182.136L233.835 182.4C233.835 182.62 233.628 182.817 233.357 183.105C233.582 183.387 235.029 183.796 235.046 184.323C235.046 185.076 233.913 185.052 233.895 185.696C233.913 186.442 235.21 186.442 235.22 186.442C236.215 186.442 237.405 185.672 238.276 185.052H238.668L238.695 185.023Z" fill="white"/>
<path fill-rule="evenodd" clip-rule="evenodd" d="M241.48 181.11C241.121 181.11 240.186 180.81 240.175 180.369C240.202 179.935 241.146 179.455 241.242 179.431C241.461 179.431 242.436 180.139 243.03 180.398C242.728 180.945 241.887 181.11 241.48 181.11ZM238.965 187.682C237.83 187.682 237.24 187.179 237.23 186.2C237.23 186.006 237.279 185.53 237.385 185.214C237.468 185.095 239.851 182.774 240.296 182.788C240.506 182.788 240.598 182.883 240.69 182.883V183.168C239.935 183.827 239.003 184.738 239.016 185.438C239.038 186.314 239.916 186.442 240.26 186.442C241.403 186.442 242.375 185.731 243.399 185.112L243.518 185.214L243.522 185.53C242.564 186.246 240.443 187.682 238.964 187.682" fill="white"/>
<path fill-rule="evenodd" clip-rule="evenodd" d="M244.459 187.683C243.781 187.683 242.211 187.32 242.192 185.986C242.142 183.828 246.694 182.869 247.594 182.869C247.81 182.869 248.01 182.883 248.252 183.04L248.283 183.511C248.035 183.665 247.728 183.689 247.537 183.689C247.326 183.689 246.594 183.609 246.407 183.626C245.759 183.626 244.011 183.887 244.046 185.139C244.046 186.246 245.38 186.443 245.841 186.443C246.03 186.443 246.424 186.38 246.635 186.339C247.616 186.048 249.383 185.113 249.601 185.113H250.032V185.415C249.157 186.027 246.083 187.683 244.459 187.683Z" fill="white"/>
<path fill-rule="evenodd" clip-rule="evenodd" d="M162.203 98.9494C165.138 94.8238 163.521 85.2589 161.676 88.154C160.088 90.6687 152.025 96.0529 144.91 100.379C144.91 100.379 146.653 95.7759 148.131 92.0618C149.63 88.3544 142.936 89.9062 139.06 91.9058C138.696 92.0967 135.614 94.0426 135.359 95.2676C136.973 94.9758 137.914 94.8696 137.727 95.3012C137.606 95.589 137.484 95.8929 137.349 96.2116C136.163 99.0624 134.563 102.935 132.955 106.786C129.244 117.271 131.101 122.009 131.101 122.009L141.035 122.428C141.035 122.428 138.543 121.355 139.599 115.588C140.633 109.905 142.164 109.051 142.494 108.923C143.072 111.35 146.706 121.179 154.976 126.895C164.991 133.813 171.898 130.358 174.576 127.595C177.259 124.829 177.259 119.294 177.259 119.294C177.259 119.294 169.634 125.517 161.882 120.154C156.534 116.452 149.121 109.816 146.277 107.319C146.761 107.112 157.198 105.981 162.203 98.9494Z" fill="white"/>
<path fill-rule="evenodd" clip-rule="evenodd" d="M158.985 122.586C147.565 132.031 132.616 132.555 125.593 123.776C118.548 114.981 122.104 100.203 133.513 90.7601C144.927 81.3161 159.856 80.7863 166.9 89.574C173.927 98.3604 170.388 113.144 158.985 122.586ZM167.518 87.5744C158.835 76.7024 141.909 76.0905 129.699 86.1894C117.503 96.2855 114.659 113.277 123.355 124.132C132.042 134.991 148.979 135.616 161.181 125.514C173.38 115.415 176.215 98.4263 167.518 87.5744Z" fill="white"/>
<path fill-rule="evenodd" clip-rule="evenodd" d="M44.3233 144.116H50.1257L47.9849 154.515H48.0549L56.0358 144.116H60.6051L53.1285 153.825L59.9664 166.008H53.3826L47.8666 155.622H47.8101L45.7984 166.01H40L44.3233 144.116Z" fill="white"/>
<path fill-rule="evenodd" clip-rule="evenodd" d="M70.4409 154.101C70.4409 153.322 69.9864 152.863 69.2427 152.863C67.3601 152.863 66.1096 155.584 65.8541 157.161C68.5838 157.237 70.4409 156.254 70.4409 154.101ZM75.0197 164.552C72.181 165.585 69.3812 166.373 66.513 166.373C63.1955 166.373 59.6562 164.702 59.6562 160.893C59.6562 156.147 63.7496 149.231 71.2531 149.231C73.2971 149.231 75.6678 150.354 75.6678 152.904C75.6678 157.656 69.5695 160.563 65.4614 160.44C65.491 162.192 66.8061 162.919 68.4104 162.919C70.5888 162.919 73.9022 161.593 75.8588 160.535L75.0197 164.552ZM84.1207 156.529H84.4865C85.6873 153.752 88.7533 149.233 92.0801 149.233C94.1241 149.233 95.3249 150.75 95.3249 152.656C95.3249 153.45 95.1232 154.23 94.9753 155.023L92.7672 166.008H87.0065L89.0235 155.718C89.0491 155.503 89.1742 155.135 89.1742 154.895C89.1742 154.71 89.1204 154.405 88.8353 154.405C87.8025 154.405 84.2592 159.705 83.6769 160.891L82.6711 166.009H76.8646L80.1094 149.596H85.8325L84.1207 156.529ZM99.983 166.009L96.8875 149.594H102.797L104.603 159.201L111.049 149.594H115.455L100.444 171.847H94.4508L99.983 166.009ZM124.745 153.143C124.22 152.842 123.542 152.601 122.889 152.601C119.409 152.601 118.048 158.982 118.048 160.534C118.048 160.947 118.199 161.468 118.716 161.468C120.3 161.468 123.127 156.685 124.418 154.812L124.745 153.143ZM123.938 159.073H123.577C122.359 161.857 119.32 166.373 115.977 166.373C113.632 166.373 112.26 164.23 112.26 162.043C112.26 156.747 117.42 149.322 123.105 149.322C124.447 149.322 125.379 149.596 125.812 149.596H131.233L127.991 166.011H122.245L123.939 159.072L123.938 159.073ZM150.368 157.079L148.954 149.447H148.897L144.876 157.079H150.368ZM147.677 144.116H153.425L157.614 166.011H152.077L151.03 160.534H143.006L140.107 166.011H135.99L147.676 144.115L147.677 144.116ZM163.389 144.017H169.175L168.494 147.253H162.69L163.389 144.017ZM162.211 149.594H168.007L164.766 166.009H158.949L162.211 149.594ZM174.903 156.529H175.258C176.476 153.752 179.524 149.233 182.862 149.233C183.513 149.233 184.052 149.409 184.34 149.564L182.296 154.651C181.899 154.449 181.465 154.258 181.025 154.258C178.104 154.258 175.588 158.982 174.441 160.893L173.427 166.011H167.624L170.872 149.596H176.608L174.903 156.529ZM185.619 149.596H190.694L191.053 160.012H191.128L196.215 149.596H201.063L201.506 160.04H201.556L206.702 149.596H210.757L202.621 166.009H197.089L196.682 156.115H196.62L191.779 166.009H186.248L185.619 149.596ZM220.697 153.143C220.155 152.842 219.488 152.601 218.837 152.601C215.348 152.601 214.002 158.982 214.002 160.534C214.002 160.947 214.147 161.468 214.661 161.468C216.261 161.468 219.093 156.685 220.373 154.812L220.697 153.143ZM219.897 159.073H219.53C218.322 161.857 215.266 166.373 211.929 166.373C209.59 166.373 208.213 164.23 208.213 162.043C208.213 156.747 213.38 149.322 219.034 149.322C220.394 149.322 221.322 149.596 221.759 149.596H227.178L223.938 166.011H218.177L219.898 159.072L219.897 159.073ZM232.257 166.009L229.155 149.594H235.092L236.89 159.201L243.334 149.594H247.718L232.716 171.847H226.741L232.257 166.009ZM259.309 153.262C258.139 152.843 256.914 152.504 255.674 152.504C254.716 152.504 253.4 152.803 253.4 154.02C253.4 155.956 258.408 157.351 258.408 160.918C258.408 163.105 256.969 166.373 250.802 166.373C248.767 166.373 246.867 165.976 244.862 165.464L245.601 161.622C247.055 162.256 249.239 163.105 250.802 163.105C251.582 163.105 252.604 162.593 252.604 161.532C252.604 159.28 247.956 157.899 247.956 154.314C247.956 152.37 249.279 149.231 255.455 149.231C256.971 149.231 258.599 149.535 259.999 149.714L259.309 153.262Z" fill="white"/>
<path fill-rule="evenodd" clip-rule="evenodd" d="M163.389 144.017H169.176L168.494 147.253H162.69L163.389 144.017ZM162.211 149.594H168.007L164.766 166.009H158.949L162.211 149.594ZM174.903 156.529H175.258C176.476 153.752 179.525 149.233 182.862 149.233C183.513 149.233 184.052 149.409 184.34 149.564L182.296 154.651C181.9 154.449 181.465 154.258 181.025 154.258C178.105 154.258 175.589 158.982 174.442 160.893L173.428 166.011H167.624L170.873 149.596H176.608L174.903 156.529ZM185.619 149.596H190.694L191.053 160.012H191.128L196.215 149.596H201.063L201.507 160.04H201.557L206.703 149.596H210.757L202.622 166.009H197.089L196.682 156.115H196.62L191.779 166.009H186.248L185.619 149.596ZM220.697 153.143C220.155 152.842 219.488 152.601 218.838 152.601C215.348 152.601 214.002 158.982 214.002 160.534C214.002 160.947 214.147 161.468 214.661 161.468C216.261 161.468 219.093 156.685 220.373 154.812L220.697 153.143ZM219.897 159.073H219.53C218.323 161.857 215.266 166.373 211.93 166.373C209.59 166.373 208.213 164.23 208.213 162.043C208.213 156.747 213.381 149.322 219.034 149.322C220.395 149.322 221.323 149.596 221.76 149.596H227.179L223.938 166.011H218.177L219.899 159.072L219.897 159.073ZM232.258 166.009L229.156 149.594H235.093L236.89 159.201L243.334 149.594H247.718L232.716 171.847H226.742L232.258 166.009ZM259.31 153.262C258.14 152.843 256.915 152.504 255.675 152.504C254.716 152.504 253.401 152.803 253.401 154.02C253.401 155.956 258.409 157.351 258.409 160.918C258.409 163.105 256.97 166.373 250.803 166.373C248.767 166.373 246.867 165.976 244.862 165.464L245.601 161.622C247.055 162.256 249.239 163.105 250.803 163.105C251.583 163.105 252.605 162.593 252.605 161.532C252.605 159.28 247.956 157.899 247.956 154.314C247.956 152.37 249.279 149.231 255.456 149.231C256.971 149.231 258.6 149.535 259.999 149.714L259.31 153.262Z" fill="white"/>
<path fill-rule="evenodd" clip-rule="evenodd" d="M163.389 144.017H169.176L168.494 147.253H162.69L163.389 144.017ZM162.211 149.594H168.007L164.766 166.009H158.949L162.211 149.594ZM174.903 156.529H175.258C176.476 153.752 179.525 149.233 182.862 149.233C183.513 149.233 184.052 149.409 184.34 149.564L182.296 154.651C181.9 154.449 181.465 154.258 181.025 154.258C178.105 154.258 175.589 158.982 174.442 160.893L173.428 166.011H167.624L170.873 149.596H176.608L174.903 156.529ZM185.619 149.596H190.694L191.053 160.012H191.128L196.215 149.596H201.063L201.507 160.04H201.557L206.703 149.596H210.757L202.622 166.009H197.089L196.682 156.115H196.62L191.779 166.009H186.248L185.619 149.596ZM220.697 153.143C220.155 152.842 219.488 152.601 218.838 152.601C215.348 152.601 214.002 158.982 214.002 160.534C214.002 160.947 214.147 161.468 214.661 161.468C216.261 161.468 219.093 156.685 220.373 154.812L220.697 153.143ZM219.897 159.073H219.53C218.323 161.857 215.266 166.373 211.93 166.373C209.59 166.373 208.213 164.23 208.213 162.043C208.213 156.747 213.381 149.322 219.034 149.322C220.395 149.322 221.323 149.596 221.76 149.596H227.179L223.938 166.011H218.177L219.899 159.072L219.897 159.073ZM232.258 166.009L229.156 149.594H235.093L236.89 159.201L243.334 149.594H247.718L232.716 171.847H226.742L232.258 166.009ZM259.31 153.262C258.14 152.843 256.915 152.504 255.675 152.504C254.716 152.504 253.401 152.803 253.401 154.02C253.401 155.956 258.409 157.351 258.409 160.918C258.409 163.105 256.97 166.373 250.803 166.373C248.767 166.373 246.867 165.976 244.862 165.464L245.601 161.622C247.055 162.256 249.239 163.105 250.803 163.105C251.583 163.105 252.605 162.593 252.605 161.532C252.605 159.28 247.956 157.899 247.956 154.314C247.956 152.37 249.279 149.231 255.456 149.231C256.971 149.231 258.6 149.535 259.999 149.714L259.31 153.262Z" fill="white"/>
<path fill-rule="evenodd" clip-rule="evenodd" d="M163.39 144.017H169.176L168.494 147.253H162.691L163.39 144.017ZM162.212 149.594H168.008L164.767 166.009H158.95L162.212 149.594ZM174.903 156.529H175.258C176.477 153.752 179.525 149.233 182.863 149.233C183.514 149.233 184.053 149.409 184.341 149.564L182.297 154.651C181.9 154.449 181.466 154.258 181.026 154.258C178.105 154.258 175.589 158.982 174.442 160.893L173.428 166.011H167.624L170.873 149.596H176.609L174.903 156.529ZM185.619 149.596H190.694L191.053 160.012H191.129L196.216 149.596H201.064L201.507 160.04H201.557L206.703 149.596H210.758L202.622 166.009H197.09L196.682 156.115H196.621L191.78 166.009H186.249L185.619 149.596ZM220.698 153.143C220.156 152.842 219.489 152.601 218.838 152.601C215.348 152.601 214.002 158.982 214.002 160.534C214.002 160.947 214.148 161.468 214.661 161.468C216.262 161.468 219.094 156.685 220.374 154.812L220.698 153.143ZM219.898 159.073H219.531C218.323 161.857 215.266 166.373 211.93 166.373C209.59 166.373 208.213 164.23 208.213 162.043C208.213 156.747 213.381 149.322 219.034 149.322C220.395 149.322 221.323 149.596 221.76 149.596H227.179L223.939 166.011H218.178L219.899 159.072L219.898 159.073ZM232.258 166.009L229.156 149.594H235.093L236.891 159.201L243.335 149.594H247.719L232.717 171.847H226.742L232.258 166.009ZM259.31 153.262C258.14 152.843 256.915 152.504 255.675 152.504C254.716 152.504 253.401 152.803 253.401 154.02C253.401 155.956 258.409 157.351 258.409 160.918C258.409 163.105 256.97 166.373 250.803 166.373C248.767 166.373 246.867 165.976 244.862 165.464L245.602 161.622C247.056 162.256 249.239 163.105 250.803 163.105C251.583 163.105 252.605 162.593 252.605 161.532C252.605 159.28 247.957 157.899 247.957 154.314C247.957 152.37 249.28 149.231 255.456 149.231C256.972 149.231 258.6 149.535 260 149.714L259.31 153.262ZM44.3233 144.116H50.1257L47.9849 154.515H48.0549L56.0358 144.116H60.6051L53.1285 153.825L59.9664 166.008H53.3826L47.8666 155.622H47.8101L45.7984 166.009H40L44.3233 144.116Z" fill="white"/>
<path fill-rule="evenodd" clip-rule="evenodd" d="M70.4409 154.101C70.4409 153.322 69.9864 152.863 69.2427 152.863C67.3601 152.863 66.1096 155.584 65.8541 157.161C68.5838 157.237 70.4409 156.254 70.4409 154.101ZM75.0197 164.552C72.181 165.585 69.3812 166.373 66.513 166.373C63.1955 166.373 59.6562 164.702 59.6562 160.893C59.6562 156.147 63.7496 149.231 71.2531 149.231C73.2971 149.231 75.6678 150.354 75.6678 152.904C75.6678 157.656 69.5695 160.563 65.4614 160.44C65.491 162.192 66.8061 162.919 68.4104 162.919C70.5888 162.919 73.9022 161.593 75.8588 160.535L75.0197 164.552ZM84.1207 156.529H84.4865C85.6873 153.752 88.7533 149.233 92.0801 149.233C94.1241 149.233 95.3249 150.75 95.3249 152.656C95.3249 153.45 95.1232 154.23 94.9753 155.023L92.7672 166.008H87.0065L89.0235 155.718C89.0491 155.503 89.1742 155.135 89.1742 154.895C89.1742 154.71 89.1204 154.405 88.8353 154.405C87.8025 154.405 84.2592 159.705 83.6769 160.891L82.6711 166.009H76.8646L80.1094 149.596H85.8325L84.1207 156.529ZM99.983 166.009L96.8875 149.594H102.797L104.603 159.201L111.049 149.594H115.455L100.444 171.847H94.4508L99.983 166.009ZM124.745 153.143C124.22 152.842 123.542 152.601 122.889 152.601C119.409 152.601 118.048 158.982 118.048 160.534C118.048 160.947 118.199 161.468 118.716 161.468C120.3 161.468 123.127 156.685 124.418 154.812L124.745 153.143ZM123.938 159.073H123.577C122.359 161.857 119.32 166.373 115.977 166.373C113.632 166.373 112.26 164.23 112.26 162.043C112.26 156.747 117.42 149.322 123.105 149.322C124.447 149.322 125.379 149.596 125.812 149.596H131.233L127.991 166.011H122.245L123.939 159.072L123.938 159.073ZM150.368 157.079L148.954 149.447H148.897L144.876 157.079H150.368ZM147.677 144.116H153.425L157.614 166.011H152.077L151.03 160.534H143.006L140.107 166.011H135.99L147.676 144.115L147.677 144.116ZM163.389 144.017H169.175L168.494 147.253H162.69L163.389 144.017ZM162.211 149.594H168.007L164.766 166.009H158.949L162.211 149.594ZM174.903 156.529H175.258C176.476 153.752 179.524 149.233 182.862 149.233C183.513 149.233 184.052 149.409 184.34 149.564L182.296 154.651C181.899 154.449 181.465 154.258 181.025 154.258C178.104 154.258 175.588 158.982 174.441 160.893L173.427 166.011H167.624L170.872 149.596H176.608L174.903 156.529ZM185.619 149.596H190.694L191.053 160.012H191.128L196.215 149.596H201.063L201.506 160.04H201.556L206.702 149.596H210.757L202.621 166.009H197.089L196.682 156.115H196.62L191.779 166.009H186.248L185.619 149.596ZM220.697 153.143C220.155 152.842 219.488 152.601 218.837 152.601C215.348 152.601 214.002 158.982 214.002 160.534C214.002 160.947 214.147 161.468 214.661 161.468C216.261 161.468 219.093 156.685 220.373 154.812L220.697 153.143ZM219.897 159.073H219.53C218.322 161.857 215.266 166.373 211.929 166.373C209.59 166.373 208.213 164.23 208.213 162.043C208.213 156.747 213.38 149.322 219.034 149.322C220.394 149.322 221.322 149.596 221.759 149.596H227.178L223.938 166.011H218.177L219.898 159.072L219.897 159.073ZM232.257 166.009L229.155 149.594H235.092L236.89 159.201L243.334 149.594H247.718L232.716 171.847H226.741L232.257 166.009ZM259.309 153.262C258.139 152.843 256.914 152.504 255.674 152.504C254.716 152.504 253.4 152.803 253.4 154.02C253.4 155.956 258.408 157.351 258.408 160.918C258.408 163.105 256.969 166.373 250.802 166.373C248.767 166.373 246.867 165.976 244.862 165.464L245.601 161.622C247.055 162.256 249.239 163.105 250.802 163.105C251.582 163.105 252.604 162.593 252.604 161.532C252.604 159.28 247.956 157.899 247.956 154.314C247.956 152.37 249.279 149.231 255.455 149.231C256.971 149.231 258.599 149.535 259.999 149.714L259.309 153.262Z" fill="white"/>
<path fill-rule="evenodd" clip-rule="evenodd" d="M163.389 144.017H169.176L168.494 147.253H162.69L163.389 144.017ZM162.211 149.594H168.007L164.766 166.009H158.949L162.211 149.594ZM174.903 156.529H175.258C176.476 153.752 179.525 149.233 182.862 149.233C183.513 149.233 184.052 149.409 184.34 149.564L182.296 154.651C181.9 154.449 181.465 154.258 181.025 154.258C178.105 154.258 175.589 158.982 174.442 160.893L173.428 166.011H167.624L170.873 149.596H176.608L174.903 156.529ZM185.619 149.596H190.694L191.053 160.012H191.128L196.215 149.596H201.063L201.507 160.04H201.557L206.703 149.596H210.757L202.622 166.009H197.089L196.682 156.115H196.62L191.779 166.009H186.248L185.619 149.596ZM220.697 153.143C220.155 152.842 219.488 152.601 218.838 152.601C215.348 152.601 214.002 158.982 214.002 160.534C214.002 160.947 214.147 161.468 214.661 161.468C216.261 161.468 219.093 156.685 220.373 154.812L220.697 153.143ZM219.897 159.073H219.53C218.323 161.857 215.266 166.373 211.93 166.373C209.59 166.373 208.213 164.23 208.213 162.043C208.213 156.747 213.381 149.322 219.034 149.322C220.395 149.322 221.323 149.596 221.76 149.596H227.179L223.938 166.011H218.177L219.899 159.072L219.897 159.073ZM232.258 166.009L229.156 149.594H235.093L236.89 159.201L243.334 149.594H247.718L232.716 171.847H226.742L232.258 166.009ZM259.31 153.262C258.14 152.843 256.915 152.504 255.675 152.504C254.716 152.504 253.401 152.803 253.401 154.02C253.401 155.956 258.409 157.351 258.409 160.918C258.409 163.105 256.97 166.373 250.803 166.373C248.767 166.373 246.867 165.976 244.862 165.464L245.601 161.622C247.055 162.256 249.239 163.105 250.803 163.105C251.583 163.105 252.605 162.593 252.605 161.532C252.605 159.28 247.956 157.899 247.956 154.314C247.956 152.37 249.279 149.231 255.456 149.231C256.971 149.231 258.6 149.535 259.999 149.714L259.31 153.262Z" fill="white"/>
<path fill-rule="evenodd" clip-rule="evenodd" d="M163.389 144.017H169.176L168.494 147.253H162.69L163.389 144.017ZM162.211 149.594H168.007L164.766 166.009H158.949L162.211 149.594ZM174.903 156.529H175.258C176.476 153.752 179.525 149.233 182.862 149.233C183.513 149.233 184.052 149.409 184.34 149.564L182.296 154.651C181.9 154.449 181.465 154.258 181.025 154.258C178.105 154.258 175.589 158.982 174.442 160.893L173.428 166.011H167.624L170.873 149.596H176.608L174.903 156.529ZM185.619 149.596H190.694L191.053 160.012H191.128L196.215 149.596H201.063L201.507 160.04H201.557L206.703 149.596H210.757L202.622 166.009H197.089L196.682 156.115H196.62L191.779 166.009H186.248L185.619 149.596ZM220.697 153.143C220.155 152.842 219.488 152.601 218.838 152.601C215.348 152.601 214.002 158.982 214.002 160.534C214.002 160.947 214.147 161.468 214.661 161.468C216.261 161.468 219.093 156.685 220.373 154.812L220.697 153.143ZM219.897 159.073H219.53C218.323 161.857 215.266 166.373 211.93 166.373C209.59 166.373 208.213 164.23 208.213 162.043C208.213 156.747 213.381 149.322 219.034 149.322C220.395 149.322 221.323 149.596 221.76 149.596H227.179L223.938 166.011H218.177L219.899 159.072L219.897 159.073ZM232.258 166.009L229.156 149.594H235.093L236.89 159.201L243.334 149.594H247.718L232.716 171.847H226.742L232.258 166.009ZM259.31 153.262C258.14 152.843 256.915 152.504 255.675 152.504C254.716 152.504 253.401 152.803 253.401 154.02C253.401 155.956 258.409 157.351 258.409 160.918C258.409 163.105 256.97 166.373 250.803 166.373C248.767 166.373 246.867 165.976 244.862 165.464L245.601 161.622C247.055 162.256 249.239 163.105 250.803 163.105C251.583 163.105 252.605 162.593 252.605 161.532C252.605 159.28 247.956 157.899 247.956 154.314C247.956 152.37 249.279 149.231 255.456 149.231C256.971 149.231 258.6 149.535 259.999 149.714L259.31 153.262Z" fill="white"/>
</g>
<defs>
<clipPath id="clip0_4318_137636">
<rect width="300" height="300" fill="white"/>
</clipPath>
</defs>
</svg>
